<svg xmlns="http://www.w3.org/2000/svg" width="2965" height="777" viewBox="0 0 2965 777"><g fill="#10403B"><g transform="translate(-43,759) scale(1,-1)"><path transform="translate(0,0)" d="M304 -18Q247 -18 199.0 3.0Q151 24 116.0 62.0Q81 100 62.0 150.5Q43 201 43 260V281Q43 339 61.5 390.0Q80 441 113.5 479.0Q147 517 194.5 538.5Q242 560 300 560Q364 560 412.5 532.5Q461 505 490.0 450.0Q519 395 522 312L481 360V730H620V0H510V231H534Q531 148 500.0 92.5Q469 37 418.5 9.5Q368 -18 304 -18ZM335 99Q376 99 410.0 117.5Q444 136 464.5 171.5Q485 207 485 255V295Q485 343 464.0 375.5Q443 408 409.0 425.5Q375 443 335 443Q290 443 255.5 421.5Q221 400 201.5 361.0Q182 322 182 270Q182 218 202.0 179.5Q222 141 256.5 120.0Q291 99 335 99Z"/><path transform="translate(711,0)" d="M105 0V543H244V0ZM29 439V543H244V439ZM156 608Q115 608 95.5 629.5Q76 651 76 684Q76 717 95.5 738.0Q115 759 156 759Q197 759 216.0 738.0Q235 717 235 684Q235 651 216.0 629.5Q197 608 156 608Z"/><path transform="translate(1048,0)" d="M304 -18Q247 -18 199.0 3.0Q151 24 116.0 62.0Q81 100 62.0 150.5Q43 201 43 260V281Q43 339 61.5 390.0Q80 441 113.5 479.0Q147 517 194.5 538.5Q242 560 300 560Q364 560 412.5 532.5Q461 505 490.0 450.0Q519 395 522 312L481 360V730H620V0H510V231H534Q531 148 500.0 92.5Q469 37 418.5 9.5Q368 -18 304 -18ZM335 99Q376 99 410.0 117.5Q444 136 464.5 171.5Q485 207 485 255V295Q485 343 464.0 375.5Q443 408 409.0 425.5Q375 443 335 443Q290 443 255.5 421.5Q221 400 201.5 361.0Q182 322 182 270Q182 218 202.0 179.5Q222 141 256.5 120.0Q291 99 335 99Z"/><path transform="translate(1759,0)" d="M51 220V342H456V220Z"/><path transform="translate(2278,0)" d="M105 0V543H244V0ZM29 439V543H244V439ZM156 608Q115 608 95.5 629.5Q76 651 76 684Q76 717 95.5 738.0Q115 759 156 759Q197 759 216.0 738.0Q235 717 235 684Q235 651 216.0 629.5Q197 608 156 608Z"/><path transform="translate(2615,0)" d="M315 -7Q240 -7 191.5 12.5Q143 32 119.0 78.5Q95 125 95 204L96 696H226L225 195Q225 155 246.5 133.5Q268 112 308 112H393V-7ZM9 441V543H393V441Z"/></g></g></svg>
