<svg xmlns="http://www.w3.org/2000/svg" width="1108" height="300" viewBox="0 0 1108 300"><g transform="scale(0.23923444976076555)"><rect x="0" y="0" width="1253" height="1253" rx="156" ry="156" fill="#10403B"/><g><path d="M0 0 C1.0238681 0.00182281 2.04773621 0.00364563 3.10263062 0.00552368 C76.21207634 0.22377781 147.69869324 23.86327501 205.9375 68.3125 C206.51806152 68.74884766 207.09862305 69.18519531 207.69677734 69.63476562 C217.37744238 76.91751726 226.2489727 84.87905236 234.9375 93.3125 C235.7409082 94.08867676 236.54431641 94.86485352 237.37207031 95.66455078 C247.70693879 105.68760824 257.39820268 115.72043906 265.9375 127.3125 C266.77569947 128.38873897 267.61818664 129.46165175 268.46484375 130.53125 C274.7546113 138.49281288 280.47886538 146.76153543 285.9375 155.3125 C286.30166016 155.88097656 286.66582031 156.44945312 287.04101562 157.03515625 C335.72742206 233.75852434 350.54686432 328.76028219 330.88671875 417.02734375 C320.22480971 463.93772517 300.15145926 506.84290363 272.9375 546.3125 C274.34428498 549.2534769 275.69923206 551.30198284 278.0625 553.5625 C278.536875 554.01625 278.536875 554.01625 280.9375 556.3125 C280.9375 556.9725 280.9375 557.6325 280.9375 558.3125 C281.9275 558.6425 282.9175 558.9725 283.9375 559.3125 C284.29837928 559.74498613 284.65925856 560.17747227 285.03107357 560.62306404 C290.79225109 567.37448427 297.09002385 573.56892704 303.38696289 579.81201172 C304.63957678 581.05778417 305.89193489 582.30381384 307.14405823 583.55007935 C309.82785094 586.22060622 312.51306284 588.8896949 315.19929695 591.55776596 C319.45240625 595.7828875 323.69997283 600.01355168 327.94639587 604.24539185 C329.40429487 605.6981479 330.86220069 607.1508971 332.32011318 608.6036396 C333.04986225 609.33080311 333.77961132 610.05796662 334.53147399 610.80716538 C344.40836131 620.64809071 354.28998493 630.48422291 364.18188477 640.31005859 C370.86921141 646.95281211 377.54932817 653.60272617 384.22144312 660.26075947 C387.74625063 663.77751815 391.27464353 667.29050211 394.81199837 670.7946434 C398.13916379 674.09061889 401.45678528 677.39591144 404.76752281 680.70838547 C405.97896815 681.91714907 407.19381634 683.12251409 408.41242218 684.32405853 C417.1859472 692.9801053 426.4768382 702.19139633 427.1328125 715.1796875 C427.11971369 716.51576637 427.09615184 717.85178077 427.0625 719.1875 C427.05347656 719.87585938 427.04445313 720.56421875 427.03515625 721.2734375 C426.98601589 724.8115432 426.65996623 727.06981705 425.3125 730.3125 C425.01085937 731.055 424.70921875 731.7975 424.3984375 732.5625 C419.63474296 741.52945443 412.17172258 748.48253913 405.07128906 755.60424805 C403.19341951 757.4940429 401.33506544 759.40172789 399.4765625 761.31054688 C383.93167995 777.06361519 383.93167995 777.06361519 372.80078125 777.41015625 C371.62902344 777.39855469 370.45726562 777.38695312 369.25 777.375 C368.07050781 777.36597656 366.89101563 777.35695313 365.67578125 777.34765625 C362.77329005 777.31039174 361.15936894 776.72970885 358.4375 775.75 C358.01984375 775.60498047 358.01984375 775.60498047 355.90625 774.87109375 C347.90057198 770.66811279 341.55894743 763.07809982 335.23608398 756.74047852 C334.29081439 755.79656727 333.34533292 754.85286816 332.3996582 753.90936279 C329.85402674 751.36825403 327.31152513 748.82403591 324.7697475 746.279073 C322.09597491 743.60274995 319.41974199 740.92888887 316.74391174 738.25462341 C312.25268746 733.76521302 307.76356324 729.27371081 303.27563477 724.78100586 C298.10380953 719.60373951 292.92839199 714.43008518 287.75109428 709.25829178 C283.28786334 704.79961423 278.82660333 700.33897164 274.36695343 695.87671226 C271.71136294 693.21957122 269.05512167 690.5630902 266.39709282 687.90838814 C263.89706818 685.41127469 261.39954533 682.91168461 258.90384674 680.4102478 C257.56265776 679.06712876 256.21903838 677.72643795 254.87532043 676.385849 C250.56597472 672.06157932 246.41794001 667.66567119 242.43678188 663.03748989 C240.53278726 660.84686015 238.52621106 658.78111934 236.47094727 656.73242188 C235.6706459 655.93219604 234.87034454 655.13197021 234.04579163 654.30749512 C233.20696945 653.47383423 232.36814728 652.64017334 231.50390625 651.78125 C230.62596909 650.90472778 229.74803192 650.02820557 228.8434906 649.12512207 C226.06468504 646.35187204 223.28240603 643.58213718 220.5 640.8125 C218.60430135 638.92239195 216.70940217 637.03148482 214.81445312 635.140625 C210.19144811 630.52858996 205.56559343 625.91942859 200.9375 621.3125 C197.20845957 622.7395016 194.41217476 624.30071488 191.25 626.75 C176.50625659 637.64584234 160.27577242 646.09075666 143.9375 654.3125 C143.56729736 654.50126709 143.56729736 654.50126709 141.69384766 655.45654297 C108.24028657 672.42643373 70.22474074 682.62783174 32.9375 686.3125 C32.07922607 686.39790039 31.22095215 686.48330078 30.33666992 686.57128906 C-55.69669994 694.22357573 -142.71457414 668.58045679 -210.0625 614.3125 C-210.52011719 613.95091797 -210.52011719 613.95091797 -212.8359375 612.12109375 C-231.01361718 597.56332449 -248.94694404 580.85482795 -263.0625 562.3125 C-263.89136719 561.28898438 -264.72023438 560.26546875 -265.57421875 559.2109375 C-278.72190087 542.97177979 -289.72343214 525.43929636 -300.0625 507.3125 C-300.25497314 506.98056641 -300.25497314 506.98056641 -301.22900391 505.30078125 C-326.43010398 461.68667658 -341.89553391 405.57828602 -342.30078125 355.390625 C-342.3105751 354.38015106 -342.32036896 353.36967712 -342.33045959 352.32858276 C-342.50487224 329.6566754 -342.22112739 307.66591343 -338.0625 285.3125 C-337.84819336 284.13187988 -337.63388672 282.95125977 -337.41308594 281.73486328 C-325.30916052 216.6784665 -294.81575636 156.91913341 -250.0625 108.3125 C-249.52399414 107.72355957 -248.98548828 107.13461914 -248.43066406 106.52783203 C-235.87703895 92.81183422 -235.87703895 92.81183422 -229.94921875 87.890625 C-227.76615939 86.06462918 -225.70767753 84.12714608 -223.625 82.1875 C-177.31955399 40.44135944 -116.80382781 14.57687671 -55.8125 4.0625 C-54.93996582 3.91119629 -54.06743164 3.75989258 -53.16845703 3.60400391 C-35.51442195 0.76175885 -17.85568437 -0.066485 0 0 Z M-141.0625 120.3125 C-141.72362793 120.73853516 -142.38475586 121.16457031 -143.06591797 121.60351562 C-166.25728126 136.71007314 -187.99197095 155.50512257 -205.0625 177.3125 C-205.85269531 178.29734375 -206.64289063 179.2821875 -207.45703125 180.296875 C-243.51871828 225.65627404 -263.34609926 283.39824699 -263.25 341.25 C-263.24906342 341.98059631 -263.24812683 342.71119263 -263.24716187 343.46392822 C-263.21468304 355.18542525 -262.84398493 366.71208219 -261.0625 378.3125 C-260.91184082 379.30813965 -260.76118164 380.3037793 -260.60595703 381.32958984 C-254.19580358 422.24742813 -239.48769181 462.59422174 -215.0625 496.3125 C-214.33804688 497.32828125 -213.61359375 498.3440625 -212.8671875 499.390625 C-201.15150764 515.43144832 -187.5333043 531.78220816 -172.0625 544.3125 C-170.92632353 545.27123571 -169.79099573 546.23097756 -168.65625 547.19140625 C-114.82917263 592.32945939 -45.42072376 613.72987641 24.5625 607.625 C58.35727771 604.13091357 90.97821146 594.26078725 120.9375 578.3125 C121.57042969 577.9820166 122.20335937 577.6515332 122.85546875 577.31103516 C139.89754603 568.37085821 155.63079594 557.16396468 169.9375 544.3125 C170.45779785 543.84714844 170.9780957 543.38179687 171.51416016 542.90234375 C180.53503001 534.81523722 189.07879115 526.61574212 196.6640625 517.140625 C198.11261102 515.33865055 199.58444922 513.55498128 201.0859375 511.796875 C212.08739195 498.84931489 220.99604845 484.29509684 228.9375 469.3125 C229.2773291 468.67666992 229.6171582 468.04083984 229.96728516 467.38574219 C249.80450564 429.98817014 260.39248088 387.9501627 260.19824219 345.6472168 C260.18752373 342.88112413 260.19820754 340.11568254 260.2109375 337.34960938 C260.2243998 321.82473435 258.99681746 306.69173904 255.6875 291.5 C255.47134033 290.49283936 255.25518066 289.48567871 255.0324707 288.44799805 C244.86688605 242.25166738 224.08776344 199.67479992 192.07421875 164.671875 C190.22578021 162.63082038 188.45415115 160.54875718 186.6875 158.4375 C170.48191844 139.92215739 149.17377486 125.39555648 127.9375 113.3125 C127.23947266 112.91417969 126.54144531 112.51585937 125.82226562 112.10546875 C97.86106849 96.33505317 67.6388675 86.85480317 35.9375 82.3125 C35.16905762 82.19535645 34.40061523 82.07821289 33.60888672 81.95751953 C-25.82161925 73.10672721 -90.80564261 87.82987274 -141.0625 120.3125 Z " fill="#F2EFE6" transform="translate(588.0625,221.6875)"/></g><g><path d="M0 0 C6.28471886 2.44963483 10.25991871 6.95771192 14.875 11.75 C19.71594079 16.72971987 24.56462689 21.55919812 29.83447266 26.08349609 C33.96017472 29.73476567 37.87253091 33.60951639 41.78320312 37.48803711 C42.76380615 38.45705178 43.74887736 39.42156489 44.73828125 40.3815918 C50.31357288 45.79230935 55.06511714 50.68868887 58 58 C58 66.43660662 56.61630944 71.59505918 50.79296875 77.5625 C49.60128016 78.71886961 48.39927166 79.86469308 47.1875 81 C43.54224763 84.48226944 39.98316997 87.95265864 36.70376587 91.78645325 C33.32447716 95.67400811 29.7864853 99.3491651 26.13427734 102.97924805 C25.81103737 103.30256104 25.81103737 103.30256104 24.17524719 104.9387207 C22.0645089 107.0487695 19.95026291 109.15526489 17.8359375 111.26171875 C16.35554416 112.74024342 14.87537411 114.21899169 13.39541626 115.69795227 C9.51653647 119.57303335 5.63466468 123.44510338 1.75213623 127.31652832 C-2.19569988 131.25412663 -6.14070351 135.19456046 -10.0859375 139.13476562 C-16.45664106 145.49670322 -22.82905367 151.85692274 -29.20375061 158.21485901 C-30.30530863 159.31357686 -31.40652075 160.41264165 -32.50732327 161.51211643 C-33.8709622 162.87137655 -35.24020907 164.22500472 -36.61003113 165.57803345 C-39.10106736 168.10242049 -41.471827 170.70840224 -43.84643555 173.3425293 C-53.14623546 183.51008714 -63.02411118 193.13210476 -72.78490281 202.85336518 C-75.61979042 205.67814432 -78.45132973 208.50627549 -81.28312683 211.33415222 C-88.45659069 218.49660438 -95.63432191 225.6547729 -102.8125 232.8125 C-110.58348992 240.56138876 -118.35369445 248.31105644 -126.11903018 256.06561202 C-129.47504292 259.41667606 -132.83346918 262.7652957 -136.19383872 266.11199057 C-138.2869569 268.19760269 -140.37795908 270.28532671 -142.46841812 272.37360382 C-143.88584837 273.78829795 -145.30579705 275.20046741 -146.72584534 276.61253357 C-151.17939527 281.06571798 -155.49543148 285.57120614 -159.58436108 290.36294079 C-161.29540585 292.34161032 -163.11337682 294.18884174 -165 296 C-165.66 296 -166.32 296 -167 296 C-167.25362305 296.57741943 -167.50724609 297.15483887 -167.76855469 297.74975586 C-170.09672958 302.00407544 -173.83757583 305.16441375 -177.25 308.5625 C-178.00152344 309.33013672 -178.75304687 310.09777344 -179.52734375 310.88867188 C-183.44502682 314.80977352 -186.82033099 317.94627773 -192 320 C-204.1584338 320 -206.62290271 319.58276092 -214.43519592 311.81364441 C-214.95746262 311.28418716 -215.47972931 310.75472992 -216.01782227 310.20922852 C-216.58612762 309.64121521 -217.15443298 309.0732019 -217.73995972 308.48797607 C-219.60355992 306.62299108 -221.45998558 304.7510356 -223.31640625 302.87890625 C-224.61820816 301.57336877 -225.92045636 300.26827617 -227.22312927 298.96360779 C-230.64343493 295.53568843 -234.05769646 292.10181059 -237.47070312 288.66662598 C-240.93714588 285.17975193 -244.40922266 281.69849834 -247.88085938 278.21679688 C-253.49116388 272.58894731 -259.09806092 266.95773044 -264.70033264 261.32188416 C-266.1330706 259.88077426 -267.56651819 258.44036998 -269 257 C-269.88658798 256.1075206 -270.77317596 255.2150412 -271.68663025 254.29551697 C-274.3563895 251.64636084 -277.14053494 249.13746766 -279.9375 246.625 C-283.77463428 243.15086933 -287.32427908 239.61925431 -290.58984375 235.6015625 C-292.78076497 233.11325862 -295.308892 231.05262846 -297.83203125 228.91015625 C-301.74087992 225.46614364 -305.35591691 221.72000149 -309 218 C-309 217.34 -309 216.68 -309 216 C-309.58156357 215.74309891 -310.16312714 215.48619781 -310.76231384 215.22151184 C-313.20575819 213.88768038 -314.83415426 212.41973503 -316.80297852 210.45581055 C-317.53376114 209.73133224 -318.26454376 209.00685394 -319.01747131 208.26042175 C-319.79674484 207.47709976 -320.57601837 206.69377777 -321.37890625 205.88671875 C-321.78314568 205.48343605 -321.78314568 205.48343605 -323.82884216 203.44258118 C-325.53671209 201.73607167 -327.2420612 200.02703615 -328.94506836 198.31567383 C-331.54907779 195.7009773 -334.16354841 193.09708731 -336.77929688 190.49414062 C-338.43814152 188.83397409 -340.09636549 187.17318711 -341.75390625 185.51171875 C-342.53520401 184.73446945 -343.31650177 183.95722015 -344.12147522 183.15641785 C-344.48529045 182.78945045 -344.48529045 182.78945045 -346.32641602 180.93237305 C-346.96499039 180.29220749 -347.60356476 179.65204193 -348.26148987 178.99247742 C-353.63748176 172.83114293 -354.13072452 167.84347109 -354 160 C-353.09098826 158.4122595 -352.17242076 156.82998803 -351.25 155.25 C-350.73953125 154.36828125 -350.2290625 153.4865625 -349.703125 152.578125 C-348.02287452 150.03462657 -346.22580968 148.07097075 -344 146 C-343.34 146 -342.68 146 -342 146 C-341.7428421 145.41752502 -341.4856842 144.83505005 -341.22073364 144.23492432 C-339.89050249 141.79953149 -338.43498139 140.19417733 -336.46826172 138.24121094 C-335.74766571 137.52076599 -335.0270697 136.80032104 -334.28463745 136.05804443 C-333.50750397 135.29123352 -332.73037048 134.52442261 -331.9296875 133.734375 C-331.13345978 132.94097717 -330.33723206 132.14757935 -329.51687622 131.33013916 C-326.97424052 128.79869297 -324.42473652 126.27429197 -321.875 123.75 C-320.14928247 122.03431383 -318.42401645 120.31817338 -316.69921875 118.6015625 C-304.05073085 106.01902407 -304.05073085 106.01902407 -296 103 C-288.01425519 103.68842628 -282.89698199 105.70834198 -277.13134766 111.54394531 C-276.21664703 112.46210022 -275.30194641 113.38025513 -274.35952759 114.32623291 C-273.37762746 115.32678664 -272.39580778 116.32741933 -271.4140625 117.328125 C-270.38878797 118.36155083 -269.36276345 119.39423307 -268.33602905 120.4262085 C-265.63978431 123.13952123 -262.95223104 125.8612722 -260.26690674 128.58538818 C-255.97931225 132.9322736 -251.67906212 137.26662609 -247.37794113 141.60012054 C-245.88856072 143.10328438 -244.40317153 144.61030021 -242.91836548 146.11798096 C-238.35269455 150.73202794 -233.74630285 155.19310039 -228.8152771 159.41427612 C-225.84792075 162.00639158 -223.08436648 164.79193258 -220.3125 167.58984375 C-219.72452637 168.17923233 -219.13655273 168.76862091 -218.53076172 169.37586975 C-216.68477639 171.22737618 -214.84233108 173.08235817 -213 174.9375 C-211.7359115 176.20661373 -210.47159044 177.47549589 -209.20703125 178.74414062 C-206.13533276 181.8267632 -203.06679992 184.91250428 -200 188 C-194.58917851 183.48380083 -189.55735495 178.70379968 -184.58203125 173.71484375 C-183.80236496 172.93613419 -183.02269867 172.15742462 -182.21940613 171.3551178 C-180.58197235 169.7183609 -178.94578621 168.08035498 -177.31079102 166.44116211 C-174.81313504 163.9381364 -172.31016932 161.44050965 -169.80664062 158.94335938 C-168.21061665 157.34667482 -166.61490279 155.7496802 -165.01953125 154.15234375 C-164.64710548 153.7809301 -164.64710548 153.7809301 -162.7624054 151.90135193 C-159.27876455 148.40197564 -156.05543022 144.88487306 -153 141 C-151.35825326 139.30878056 -149.68566979 137.64744435 -148 136 C-146.53085575 134.53856694 -145.06307395 133.07576373 -143.59619141 131.61206055 C-142.75827057 130.7773674 -141.92034973 129.94267426 -141.05703735 129.08268738 C-137.74741102 125.78469008 -134.43965545 122.48482059 -131.13251686 119.18432903 C-128.63133824 116.68836319 -126.12923254 114.19334155 -123.625 111.70043945 C-120.71852775 108.80702408 -117.81621427 105.90946767 -114.9140625 103.01171875 C-114.02530426 102.1281218 -113.13654602 101.24452484 -112.22085571 100.33415222 C-111.37663055 99.49000259 -110.5324054 98.64585297 -109.66259766 97.77612305 C-108.92933258 97.04507858 -108.1960675 96.31403412 -107.44058228 95.56083679 C-105.44454095 93.46644477 -103.54393403 91.33931891 -101.65292358 89.15193176 C-98.21823885 85.20065428 -94.60694571 81.47824145 -90.890625 77.79296875 C-90.21809692 77.12190094 -89.54556885 76.45083313 -88.85266113 75.75942993 C-87.40627216 74.3168177 -85.95873019 72.87536071 -84.51013184 71.43496704 C-82.21169248 69.14940713 -79.91649291 66.86063672 -77.62207031 64.57104492 C-71.925614 58.88788781 -66.22370741 53.21020913 -60.52197266 47.53234863 C-55.69378244 42.7239539 -50.86768926 37.91347257 -46.04431152 33.10025024 C-43.79364201 30.8560172 -41.53995969 28.61484077 -39.28613281 26.3737793 C-37.8937308 24.98501306 -36.50147082 23.5961044 -35.109375 22.20703125 C-34.80018127 21.90042068 -34.80018127 21.90042068 -33.23547363 20.3487854 C-28.95382978 16.06765445 -24.93735538 11.59900476 -21 7 C-20.34 7 -19.68 7 -19 7 C-18.67 6.01 -18.34 5.02 -18 4 C-11 0 -11 0 0 0 Z " fill="#33C481" transform="translate(734,421)"/></g></g><g transform="translate(345.0,69.0) scale(0.2054794520547945)"><g fill="#10403B"><g transform="translate(-43,759) scale(1,-1)"><path transform="translate(0,0)" d="M304 -18Q247 -18 199.0 3.0Q151 24 116.0 62.0Q81 100 62.0 150.5Q43 201 43 260V281Q43 339 61.5 390.0Q80 441 113.5 479.0Q147 517 194.5 538.5Q242 560 300 560Q364 560 412.5 532.5Q461 505 490.0 450.0Q519 395 522 312L481 360V730H620V0H510V231H534Q531 148 500.0 92.5Q469 37 418.5 9.5Q368 -18 304 -18ZM335 99Q376 99 410.0 117.5Q444 136 464.5 171.5Q485 207 485 255V295Q485 343 464.0 375.5Q443 408 409.0 425.5Q375 443 335 443Q290 443 255.5 421.5Q221 400 201.5 361.0Q182 322 182 270Q182 218 202.0 179.5Q222 141 256.5 120.0Q291 99 335 99Z"/><path transform="translate(711,0)" d="M105 0V543H244V0ZM29 439V543H244V439ZM156 608Q115 608 95.5 629.5Q76 651 76 684Q76 717 95.5 738.0Q115 759 156 759Q197 759 216.0 738.0Q235 717 235 684Q235 651 216.0 629.5Q197 608 156 608Z"/><path transform="translate(1048,0)" d="M304 -18Q247 -18 199.0 3.0Q151 24 116.0 62.0Q81 100 62.0 150.5Q43 201 43 260V281Q43 339 61.5 390.0Q80 441 113.5 479.0Q147 517 194.5 538.5Q242 560 300 560Q364 560 412.5 532.5Q461 505 490.0 450.0Q519 395 522 312L481 360V730H620V0H510V231H534Q531 148 500.0 92.5Q469 37 418.5 9.5Q368 -18 304 -18ZM335 99Q376 99 410.0 117.5Q444 136 464.5 171.5Q485 207 485 255V295Q485 343 464.0 375.5Q443 408 409.0 425.5Q375 443 335 443Q290 443 255.5 421.5Q221 400 201.5 361.0Q182 322 182 270Q182 218 202.0 179.5Q222 141 256.5 120.0Q291 99 335 99Z"/><path transform="translate(1759,0)" d="M51 220V342H456V220Z"/><path transform="translate(2278,0)" d="M105 0V543H244V0ZM29 439V543H244V439ZM156 608Q115 608 95.5 629.5Q76 651 76 684Q76 717 95.5 738.0Q115 759 156 759Q197 759 216.0 738.0Q235 717 235 684Q235 651 216.0 629.5Q197 608 156 608Z"/><path transform="translate(2615,0)" d="M315 -7Q240 -7 191.5 12.5Q143 32 119.0 78.5Q95 125 95 204L96 696H226L225 195Q225 155 246.5 133.5Q268 112 308 112H393V-7ZM9 441V543H393V441Z"/><path transform="translate(3058,0)" d="M186 236V414H271Q331 414 359.5 445.5Q388 477 388 523Q388 556 375.0 580.5Q362 605 337.0 618.0Q312 631 279 631Q243 631 217.5 616.0Q192 601 178.0 576.0Q164 551 164 518H31Q31 582 60.0 635.0Q89 688 145.0 719.5Q201 751 282 751Q356 751 409.5 722.5Q463 694 492.0 645.0Q521 596 521 534V522Q521 461 492.0 413.0Q463 365 406.5 337.5Q350 310 269 308L326 360L324 236ZM175 0V148H335V0Z"/></g></g></g></svg>
